<svg width="1745" height="3955" viewBox="0 0 1745 3955" fill="none" xmlns="http://www.w3.org/2000/svg">
<g clip-path="url(#clip0_1025213_73)">
<path d="M1745 3955H0V0H1745V3955Z" fill="#FCFAF8"/>
<g filter="url(#filter0_f_1025213_73)">
<path d="M352.878 874.495C1063.9 874.495 1640.3 1527.69 1640.3 2333.45C1640.3 3139.21 1063.9 3792.41 352.878 3792.41C-358.146 3792.41 -934.544 3139.21 -934.544 2333.45C-934.544 1527.69 -358.146 874.495 352.878 874.495Z" fill="#FCFAF8"/>
<path d="M1194.36 -1432.59C1905.38 -1432.59 2481.78 -779.392 2481.78 26.3669C2481.78 832.126 1905.38 1485.32 1194.36 1485.32C483.332 1485.32 -93.0664 832.126 -93.0664 26.3669C-93.0664 -779.392 483.332 -1432.59 1194.36 -1432.59Z" fill="#FCFAF8"/>
<path d="M1589.5 2226C1985.21 2226 2306 2596.48 2306 3053.5C2306 3510.52 1985.21 3881 1589.5 3881C1193.79 3881 873 3510.52 873 3053.5C873 2596.48 1193.79 2226 1589.5 2226Z" fill="#D968AC" fill-opacity="0.81"/>
<path d="M1544.5 940C1940.21 940 2261 1310.48 2261 1767.5C2261 2224.52 1940.21 2595 1544.5 2595C1148.79 2595 828 2224.52 828 1767.5C828 1310.48 1148.79 940 1544.5 940Z" fill="#D968AC" fill-opacity="0.81"/>
<path d="M1544.5 1296C1940.21 1296 2261 1666.48 2261 2123.5C2261 2580.52 1940.21 2951 1544.5 2951C1148.79 2951 828 2580.52 828 2123.5C828 1666.48 1148.79 1296 1544.5 1296Z" fill="#D968AC" fill-opacity="0.81"/>
<path d="M1544.5 179C1940.21 179 2261 549.484 2261 1006.5C2261 1463.52 1940.21 1834 1544.5 1834C1148.79 1834 828 1463.52 828 1006.5C828 549.484 1148.79 179 1544.5 179Z" fill="#D968AC" fill-opacity="0.81"/>
<path d="M32 514C325.263 514 563 1247.81 563 2153C563 3058.19 325.263 3792 32 3792C-261.263 3792 -499 3058.19 -499 2153C-499 1247.81 -261.263 514 32 514Z" fill="#D968AC" fill-opacity="0.62"/>
</g>
</g>
<defs>
<filter id="filter0_f_1025213_73" x="-1232.54" y="-1730.59" width="4012.32" height="5909.59" filterUnits="userSpaceOnUse" color-interpolation-filters="sRGB">
<feFlood flood-opacity="0" result="BackgroundImageFix"/>
<feBlend mode="normal" in="SourceGraphic" in2="BackgroundImageFix" result="shape"/>
<feGaussianBlur stdDeviation="149" result="effect1_foregroundBlur_1025213_73"/>
</filter>
<clipPath id="clip0_1025213_73">
<rect width="1745" height="3955" fill="white" transform="matrix(1 0 0 -1 0 3955)"/>
</clipPath>
</defs>
</svg>
